# xmcd CD database file
# Copyright (C) 1995-1998 Ti Kan
#
# Track frame offsets:
#	150
#	23920
#	45295
#	63285
#	90705
#	108677
#	127020
#	157192
#	174075
#	192280
#	194802
#
# Disc length: 2877 seconds
#
# Revision: 1
# Processed by: cddbd v1.4b42PL1 Copyright (c) Steve Scherf et al.
# Submitted via: CDex 1.30Release
#
DISCID=960b3b0b
DTITLE=Neil Murray - These Hands
DYEAR=1993
DGENRE=Country
TTITLE0=Sing Your Destiny
TTITLE1=Big Truck
TTITLE2=Far Away
TTITLE3=Holy Road
TTITLE4=Salty Ground
TTITLE5=Is Nothing Gonna Change
TTITLE6=Keep This Picture
TTITLE7=One day
TTITLE8=Broken Song
TTITLE9=Prelude
TTITLE10=These Hands
EXTD=YEAR: 1993 ID3G:   2
EXTT0=
EXTT1=
EXTT2=
EXTT3=
EXTT4=
EXTT5=
EXTT6=
EXTT7=
EXTT8=
EXTT9=
EXTT10=
PLAYORDER=
